HIERARCHY
ROOT Hips
{
	OFFSET 0.000000 0.000000 0.000000 
	CHANNELS 6 Xposition Yposition Zposition Zrotation Xrotation Yrotation
	JOINT Spine
	{
		OFFSET -0.000000 7.979263 0.000000 
		CHANNELS 3 Zrotation Xrotation Yrotation
		JOINT Spine1
		{
			OFFSET -0.000000 24.719021 0.000000 
			CHANNELS 3 Zrotation Xrotation Yrotation
			JOINT Neck
			{
				OFFSET -0.000000 24.617504 2.237955 
				CHANNELS 3 Zrotation Xrotation Yrotation
				JOINT Head
				{
					OFFSET -0.000000 13.623132 -1.946162 
					CHANNELS 3 Zrotation Xrotation Yrotation
					End Site
					{
						OFFSET -0.000000 24.327021 0.000000 
					}
				}
			}
			JOINT LeftShoulder
			{
				OFFSET 3.885773 23.018444 -0.302444 
				CHANNELS 3 Zrotation Xrotation Yrotation
				JOINT LeftArm
				{
					OFFSET 10.447750 0.000000 0.000000 
					CHANNELS 3 Zrotation Xrotation Yrotation
					JOINT LeftForeArm
					{
						OFFSET 29.090096 0.000000 0.000000 
						CHANNELS 3 Zrotation Xrotation Yrotation
						JOINT LeftHand
						{
							OFFSET 28.893339 0.000000 0.000000 
							CHANNELS 3 Zrotation Xrotation Yrotation
							End Site
							{
								OFFSET 14.596213 0.000000 0.000000 
							}
						}
					}
				}
			}
			JOINT RightShoulder
			{
				OFFSET -3.864586 23.018444 -0.302444 
				CHANNELS 3 Zrotation Xrotation Yrotation
				JOINT RightArm
				{
					OFFSET -10.447750 0.000000 0.000000 
					CHANNELS 3 Zrotation Xrotation Yrotation
					JOINT RightForeArm
					{
						OFFSET -29.090096 0.000000 0.000000 
						CHANNELS 3 Zrotation Xrotation Yrotation
						JOINT RightHand
						{
							OFFSET -28.893339 0.000000 0.000000 
							CHANNELS 3 Zrotation Xrotation Yrotation
							End Site
							{
								OFFSET -14.596213 0.000000 0.000000 
							}
						}
					}
				}
			}
		}
	}
	JOINT LeftUpLeg
	{
		OFFSET 9.730808 0.000000 0.000000 
		CHANNELS 3 Zrotation Xrotation Yrotation
		JOINT LeftLeg
		{
			OFFSET -0.000000 -34.800129 0.000000 
			CHANNELS 3 Zrotation Xrotation Yrotation
			JOINT LeftFoot
			{
				OFFSET -0.000000 -44.597416 0.000000 
				CHANNELS 3 Zrotation Xrotation Yrotation
				JOINT LeftToeBase
				{
					OFFSET -0.000000 -6.325025 14.596213 
					CHANNELS 3 Zrotation Xrotation Yrotation
					End Site
					{
						OFFSET -0.000000 0.000000 3.892323 
					}
				}
			}
		}
	}
	JOINT RightUpLeg
	{
		OFFSET -9.730808 0.000000 0.000000 
		CHANNELS 3 Zrotation Xrotation Yrotation
		JOINT RightLeg
		{
			OFFSET -0.000000 -34.800129 0.000000 
			CHANNELS 3 Zrotation Xrotation Yrotation
			JOINT RightFoot
			{
				OFFSET -0.000000 -44.597416 0.000000 
				CHANNELS 3 Zrotation Xrotation Yrotation
				JOINT RightToeBase
				{
					OFFSET -0.000000 -6.325025 14.596213 
					CHANNELS 3 Zrotation Xrotation Yrotation
					End Site
					{
						OFFSET -0.000000 0.000000 3.892323 
					}
				}
			}
		}
	}
}
MOTION
Frames: 6
Frame Time: 0.008333
24.240791 87.958870 -44.921467 -2.970562 -1.108954 90.906929 2.622541 -9.958395 0.401273 -1.159636 -4.542314 0.127140 2.413133 23.366924 7.439172 -0.687353 4.331700 7.837412 14.857454 2.430297 -9.333847 -15.973020 10.008221 6.502117 2.727028 -2.765558 1.679243 -4.321363 -2.809113 0.095642 -13.635704 3.436226 -3.685806 10.447827 14.131913 11.665112 0.205807 2.139172 -6.450946 -12.081399 1.867791 2.674927 -0.527464 3.368131 -8.309487 1.053230 -3.870468 15.513632 -4.285799 5.879035 0.154507 0.000000 0.000000 0.000000 0.545385 3.007275 2.581458 1.712607 -1.606726 -9.853992 1.915907 3.173563 0.806171 0.000000 0.000000 0.000000 
24.322077 87.968437 -44.912708 -2.999552 -1.088421 90.848328 2.728222 -10.027303 0.348647 -1.309829 -4.459966 0.058464 2.288889 22.725819 7.566380 -0.459407 4.813563 7.972739 15.000125 2.237279 -8.893942 -15.975623 10.001568 6.380790 2.641468 -2.816018 1.830943 -4.509492 -2.860682 0.062784 -13.738016 3.270568 -3.671644 10.589961 13.963102 11.847689 0.314930 2.322683 -6.518940 -12.278146 2.041848 2.778946 -0.559244 3.422710 -8.277253 1.074318 -3.904234 15.510573 -4.258178 5.907835 0.205720 0.000000 0.000000 0.000000 0.502431 3.143117 2.686822 1.740433 -1.806878 -9.923246 1.610466 3.330574 0.935464 0.000000 0.000000 0.000000 
24.399607 87.980988 -44.907093 -3.035574 -1.053353 90.790405 2.781342 -10.016975 0.314442 -1.386938 -4.641739 0.015164 2.152272 22.576694 7.592158 -0.305479 4.972320 8.003804 14.948450 2.266105 -8.797353 -15.883751 9.822476 6.506941 2.509336 -2.760711 1.920995 -4.151141 -2.805017 0.062295 -13.656505 3.288109 -3.558593 10.516683 14.108398 11.961771 0.295563 2.317353 -6.630641 -12.110334 2.047153 2.709810 -0.608120 3.439150 -8.204659 1.086720 -3.892048 15.448277 -4.301391 5.931915 0.292728 0.000000 0.000000 0.000000 0.449035 3.244349 2.721536 1.764097 -1.968613 -9.914464 1.569423 3.415792 0.954982 0.000000 0.000000 0.000000 
24.471378 87.992561 -44.897202 -3.066876 -1.017402 90.738655 2.803931 -9.973188 0.286674 -1.429549 -4.875056 -0.018523 2.102562 22.424976 7.580505 -0.271798 5.212758 7.989543 14.911970 2.363224 -8.749780 -15.842355 9.648417 6.631896 2.419848 -2.811521 2.054846 -3.916525 -2.868732 0.405093 -13.556505 3.360803 -3.486057 10.459401 14.131763 12.060209 0.284452 2.394109 -6.759801 -11.856506 2.114580 2.855125 -0.650139 3.425755 -8.130509 1.079727 -3.826841 15.340737 -4.279147 5.930655 0.407324 0.000000 0.000000 0.000000 0.406412 3.328378 2.937464 1.768532 -2.093529 -10.080844 1.905680 3.388512 0.857574 0.000000 0.000000 0.000000 
24.547989 88.005608 -44.887901 -3.047931 -0.975805 90.711601 2.812218 -9.922336 0.254064 -1.466467 -5.009267 -0.051366 2.008559 22.211010 7.566809 -0.161695 5.440611 7.976542 14.908483 2.368629 -8.720026 -15.876402 9.651358 6.802104 2.447771 -2.999579 2.194747 -4.834233 -3.041274 -0.122433 -13.483603 3.373585 -3.431628 10.445087 14.103256 12.122561 0.326010 2.406844 -6.845577 -11.913191 2.129657 2.844701 -0.692591 3.454449 -8.086262 1.070655 -3.753669 15.270700 -4.254237 5.955462 0.488683 0.000000 0.000000 0.000000 0.363553 3.492477 3.012860 1.770848 -2.264353 -10.136045 1.887336 3.461560 0.861599 0.000000 0.000000 0.000000 
24.607233 88.013046 -44.874912 -3.067721 -0.957714 90.717308 2.781685 -9.915792 0.224230 -1.401610 -5.105356 -0.080991 1.939833 22.098890 7.525054 -0.161501 5.476609 7.927101 14.881661 2.385864 -8.708155 -15.936205 9.661090 6.932537 2.418843 -3.056832 2.316846 -4.806080 -3.098771 -0.165464 -13.496212 3.389982 -3.436640 10.448544 14.349901 12.163687 0.286851 2.307265 -6.893949 -11.747928 2.037440 2.791878 -0.707037 3.409095 -8.045115 1.052382 -3.657415 15.270583 -4.229454 5.963921 0.464692 0.000000 0.000000 0.000000 0.349216 3.581361 3.085078 1.771521 -2.380645 -10.207043 1.846478 3.502680 0.855826 0.000000 0.000000 0.000000 
